# xmcd
#
# Track frame offsets: 
#        150
#        18645
#        32963
#        49657
#        68013
#        83165
#        100985
#        119291
#        139394
#        157643
#        177890
#        196762
#        215927
#        235935
#        253621
#        272869
#        289461
#        310333
#
# Disc length: 4389 seconds
#
# Revision: 1
# Processed by: cddbd v1.5.2PL0 Copyright (c) Steve Scherf et al.
# Submitted via: ExactAudioCopy v0.95a5
#
DISCID=0b112312
DTITLE=Various Artist - V.I.P. HOT R&B HIPHOP TRAX III [Disc 2]
DYEAR=2005
DGENRE=R&B
TTITLE0=Faith Evans - Goin' Out feat.Pharrell and Pusha T
TTITLE1=Kierra "Kiki" Sheard - Let Go (Rock Soul Remix)
TTITLE2=Christina Millian - When You Look At Me
TTITLE3=Craig David - Time To Party
TTITLE4=Javine - Let Me Go
TTITLE5=Mis-Teeq - Roll On (Blacksmith Rub)
TTITLE6=LeToya - What Love Can Do
TTITLE7=Smujji - You and I feat.Simone
TTITLE8=Kandi - Don't Think I'm NOT (LP Version)
TTITLE9=Soul II Soul - Joy
TTITLE10=The Brand New Heavies - Never Stop
TTITLE11=Elisha La'verne - Give Me A Reason (Full Mix)
TTITLE12=Lucy Pearl - You feat. Snoop Dogg and Q-Tip
TTITLE13=Ashanti - Leaving (Always On Time Part II) feat. Ja Rule
TTITLE14=Zane - Tonite, I'm Yours feat. Tank
TTITLE15=Dwele - I Think I Love U (Album Version)
TTITLE16=Dwele - Waterfalls
TTITLE17=Monica - Angel Of Mine
EXTD=
EXTT0=
EXTT1=
EXTT2=
EXTT3=
EXTT4=
EXTT5=
EXTT6=
EXTT7=
EXTT8=
EXTT9=
EXTT10=
EXTT11=
EXTT12=
EXTT13=
EXTT14=
EXTT15=
EXTT16=
EXTT17=
PLAYORDER=
